<svg xmlns="http://www.w3.org/2000/svg" width="32" height="32" viewBox="0 0 8.25 8.25"><defs><rect id="a" width="12.77" height="3.61" ry="1.8"/></defs><use href="#a" x="-7.69" y="-7.64" fill="#68cd00c0" transform="rotate(135)"/><use href="#a" x="4.64" y="-7.73" fill="#ff25c8c0" transform="rotate(90)"/><use href="#a" x=".52" y=".52" fill="#00d6ffc0"/><path d="M6.19 2.58V3.6h-.52V1.03h.52v1.03h.51v.52z"/><path d="M1.03 7.22V5.67h.52V6.7H3.6v.52z"/><path d="M6.7 7.22V6.19H4.64v-.52h2.58v1.55z"/><path d="M2.32 2.06c-.33 0-.58.07-.76.22a.67.67 0 0 0-.27.56c0 .23.1.42.28.56.2.14.44.2.75.2.3 0 .56-.06.74-.2a.66.66 0 0 0 .29-.56c0-.23-.1-.41-.29-.56a1.18 1.18 0 0 0-.74-.22Zm0 .52c.34 0 .51.09.51.26s-.17.25-.51.25a.82.82 0 0 1-.39-.07c-.09-.05-.13-.1-.13-.18 0-.17.17-.26.52-.26z"/><path d="M1.03 2.06v-.51h1.03v-.52h.52v.52H3.6v.51z"/></svg>